<svg width="1024" height="104" viewBox="0 0 1024 104" fill="none" xmlns="http://www.w3.org/2000/svg">
<path fill-rule="evenodd" clip-rule="evenodd" d="M1024 37.0002L981.333 49C938.667 62.4815 853.333 70.0742 768 72.0001C716.5 69.5 648 63 558.5 47.5C477 24 341.333 -3.35174 256 0.500112C92.5 0.500112 85.3333 17.6482 42.6666 21.5L0 34.6668V104H42.6666C85.3333 104 170.667 104 256 104C341.333 104 426.667 104 512 104C597.333 104 682.667 104 768 104C853.333 104 938.667 104 981.333 104H1024V37.0002Z" fill="#3F3D56"/>
</svg>
